<?xml version="1.0" encoding="UTF-8" standalone="no"?>
<!DOCTYPE svg PUBLIC "-//W3C//DTD SVG 1.1//EN"
 "http://www.w3.org/Graphics/SVG/1.1/DTD/svg11.dtd">
<!-- Generated by graphviz version 2.43.0 (0)
 -->
<!-- Title: G Pages: 1 -->
<svg width="824pt" height="956pt"
 viewBox="0.00 0.00 824.00 956.00" xmlns="http://www.w3.org/2000/svg" xmlns:xlink="http://www.w3.org/1999/xlink">
<g id="graph0" class="graph" transform="scale(1 1) rotate(0) translate(4 952)">
<title>G</title>
<polygon fill="white" stroke="transparent" points="-4,4 -4,-952 820,-952 820,4 -4,4"/>
<g id="clust1" class="cluster">
<title>cluster_root</title>
<g id="a_clust1"><a xlink:title="eventq_index=0&#10;full_system=false&#10;sim_quantum=0&#10;time_sync_enable=false&#10;time_sync_period=100000000000&#10;time_sync_spin_threshold=100000000">
<path fill="#bab6ae" stroke="#000000" d="M20,-8C20,-8 796,-8 796,-8 802,-8 808,-14 808,-20 808,-20 808,-928 808,-928 808,-934 802,-940 796,-940 796,-940 20,-940 20,-940 14,-940 8,-934 8,-928 8,-928 8,-20 8,-20 8,-14 14,-8 20,-8"/>
<text text-anchor="middle" x="408" y="-924.8" font-family="Arial" font-size="14.00" fill="#000000">root </text>
<text text-anchor="middle" x="408" y="-909.8" font-family="Arial" font-size="14.00" fill="#000000">: Root</text>
</a>
</g>
</g>
<g id="clust2" class="cluster">
<title>cluster_system</title>
<g id="a_clust2"><a xlink:title="auto_unlink_shared_backstore=false&#10;cache_line_size=64&#10;eventq_index=0&#10;exit_on_work_items=false&#10;external_memory_ranges=&#10;init_param=0&#10;m5ops_base=0&#10;mem_mode=timing&#10;mem_ranges=0:1073741824&#10;memories=system.mem_ctrl.dram&#10;mmap_using_noreserve=false&#10;multi_thread=false&#10;&#10;um_work_ids=16&#10;&#13;eadfile=&#10;&#13;edirect_paths=&#10;shadow_rom_ranges=&#10;shared_backstore=&#10;symbolfile=&#10;thermal_components=&#10;thermal_model=Null&#10;work_begin_ckpt_count=0&#10;work_begin_cpu_id_exit=&#45;1&#10;work_begin_exit_count=0&#10;work_cpus_ckpt_count=0&#10;work_end_ckpt_count=0&#10;work_end_exit_count=0&#10;work_item_id=&#45;1&#10;workload=system.workload">
<path fill="#e4e7eb" stroke="#000000" d="M28,-16C28,-16 788,-16 788,-16 794,-16 800,-22 800,-28 800,-28 800,-882 800,-882 800,-888 794,-894 788,-894 788,-894 28,-894 28,-894 22,-894 16,-888 16,-882 16,-882 16,-28 16,-28 16,-22 22,-16 28,-16"/>
<text text-anchor="middle" x="408" y="-878.8" font-family="Arial" font-size="14.00" fill="#000000">system </text>
<text text-anchor="middle" x="408" y="-863.8" font-family="Arial" font-size="14.00" fill="#000000">: SPMSystem</text>
</a>
</g>
</g>
<g id="clust6" class="cluster">
<title>cluster_system_cpu</title>
<g id="a_clust6"><a xlink:title="LFSTSize=1024&#10;LQEntries=32&#10;LSQCheckLoads=true&#10;LSQDepCheckShift=4&#10;SQEntries=32&#10;SSITAssoc=1&#10;SSITIndexingPolicy=system.cpu.SSITIndexingPolicy&#10;SSITReplPolicy=system.cpu.SSITReplPolicy&#10;SSITSize=1024&#10;activity=0&#10;bacToFetchDelay=1&#10;backComSize=5&#10;branchPred=system.cpu.branchPred&#10;cacheLoadPorts=200&#10;cacheStorePorts=200&#10;checker=Null&#10;clk_domain=system.clk_domain&#10;commitToDecodeDelay=1&#10;commitToFetchDelay=1&#10;commitToIEWDelay=1&#10;commitToRenameDelay=1&#10;commitWidth=8&#10;cpu_id=&#45;1&#10;decodeToFetchDelay=1&#10;decodeToRenameDelay=1&#10;decodeWidth=8&#10;decoder=system.cpu.decoder&#10;decoupledFrontEnd=false&#10;dispatchWidth=8&#10;do_checkpoint_insts=true&#10;do_statistics_insts=true&#10;eventq_index=0&#10;fetchBufferSize=64&#10;fetchQueueSize=32&#10;fetchTargetWidth=32&#10;fetchToBacDelay=1&#10;fetchToDecodeDelay=1&#10;fetchTrapLatency=1&#10;fetchWidth=8&#10;forwardComSize=5&#10;function_trace=false&#10;function_trace_start=0&#10;iewToCommitDelay=1&#10;iewToDecodeDelay=1&#10;iewToFetchDelay=1&#10;iewToRenameDelay=1&#10;instQueues=system.cpu.instQueues&#10;interrupts=system.cpu.interrupts&#10;isa=system.cpu.isa&#10;issueToExecuteDelay=1&#10;issueWidth=8&#10;maxFTPerCycle=4&#10;maxTakenPredPerCycle=1&#10;max_insts_all_threads=0&#10;max_insts_any_thread=0&#10;minInstSize=1&#10;mmu=system.cpu.mmu&#10;&#10;eedsTSO=false&#10;&#10;umFTQEntries=8&#10;&#10;umPhysCCRegs=0&#10;&#10;umPhysFloatRegs=256&#10;&#10;umPhysIntRegs=256&#10;&#10;umPhysMatRegs=2&#10;&#10;umPhysVecPredRegs=32&#10;&#10;umPhysVecRegs=256&#10;&#10;umROBEntries=192&#10;&#10;umRobs=1&#10;&#10;umThreads=1&#10;power_gating_on_idle=false&#10;power_model=&#10;power_state=system.cpu.power_state&#10;progress_interval=0&#10;pwr_gating_latency=300&#10;&#13;ecvRespBufferSize=64&#10;&#13;ecvRespMaxCachelines=1&#10;&#13;ecvRespThrottling=false&#10;&#13;enameToDecodeDelay=1&#10;&#13;enameToFetchDelay=1&#10;&#13;enameToIEWDelay=2&#10;&#13;enameToROBDelay=1&#10;&#13;enameWidth=8&#10;simpoint_start_insts=&#10;smtCommitPolicy=RoundRobin&#10;smtFetchPolicy=RoundRobin&#10;smtLSQPolicy=Partitioned&#10;smtLSQThreshold=100&#10;smtNumFetchingThreads=1&#10;smtROBPolicy=Partitioned&#10;smtROBThreshold=100&#10;socket_id=0&#10;spmAddrSize=0&#10;spmAddrStart=0&#10;squashWidth=NullOpt&#10;store_set_clear_period=250000&#10;switched_out=false&#10;syscallRetryLatency=10000&#10;system=system&#10;tracer=system.cpu.tracer&#10;trapLatency=13&#10;wbWidth=8&#10;workload=system.process">
<path fill="#bbc6d9" stroke="#000000" d="M208,-24C208,-24 780,-24 780,-24 786,-24 792,-30 792,-36 792,-36 792,-264 792,-264 792,-270 786,-276 780,-276 780,-276 208,-276 208,-276 202,-276 196,-270 196,-264 196,-264 196,-36 196,-36 196,-30 202,-24 208,-24"/>
<text text-anchor="middle" x="494" y="-260.8" font-family="Arial" font-size="14.00" fill="#000000">cpu </text>
<text text-anchor="middle" x="494" y="-245.8" font-family="Arial" font-size="14.00" fill="#000000">: RiscvO3CPU</text>
</a>
</g>
</g>
<g id="clust7" class="cluster">
<title>cluster_system_cpu_mmu</title>
<g id="a_clust7"><a xlink:title="dtb=system.cpu.mmu.dtb&#10;eventq_index=0&#10;itb=system.cpu.mmu.itb&#10;pma_checker=system.cpu.mmu.pma_checker&#10;pmp=system.cpu.mmu.pmp">
<path fill="#bab6ae" stroke="#000000" d="M420,-32C420,-32 772,-32 772,-32 778,-32 784,-38 784,-44 784,-44 784,-218 784,-218 784,-224 778,-230 772,-230 772,-230 420,-230 420,-230 414,-230 408,-224 408,-218 408,-218 408,-44 408,-44 408,-38 414,-32 420,-32"/>
<text text-anchor="middle" x="596" y="-214.8" font-family="Arial" font-size="14.00" fill="#000000">mmu </text>
<text text-anchor="middle" x="596" y="-199.8" font-family="Arial" font-size="14.00" fill="#000000">: RiscvMMU</text>
</a>
</g>
</g>
<g id="clust8" class="cluster">
<title>cluster_system_cpu_mmu_itb</title>
<g id="a_clust8"><a xlink:title="entry_type=instruction&#10;eventq_index=0&#10;&#10;ext_level=Null&#10;pma_checker=system.cpu.mmu.pma_checker&#10;pmp=system.cpu.mmu.pmp&#10;size=64&#10;walker=system.cpu.mmu.itb.walker">
<path fill="#9f9c95" stroke="#000000" d="M428,-40C428,-40 580,-40 580,-40 586,-40 592,-46 592,-52 592,-52 592,-172 592,-172 592,-178 586,-184 580,-184 580,-184 428,-184 428,-184 422,-184 416,-178 416,-172 416,-172 416,-52 416,-52 416,-46 422,-40 428,-40"/>
<text text-anchor="middle" x="504" y="-168.8" font-family="Arial" font-size="14.00" fill="#000000">itb </text>
<text text-anchor="middle" x="504" y="-153.8" font-family="Arial" font-size="14.00" fill="#000000">: RiscvTLB</text>
</a>
</g>
</g>
<g id="clust9" class="cluster">
<title>cluster_system_cpu_mmu_itb_walker</title>
<g id="a_clust9"><a xlink:title="clk_domain=system.clk_domain&#10;eventq_index=0&#10;&#10;um_squash_per_cycle=4&#10;pma_checker=system.cpu.mmu.pma_checker&#10;pmp=system.cpu.mmu.pmp&#10;power_model=&#10;power_state=system.cpu.mmu.itb.walker.power_state&#10;system=system">
<path fill="#84827c" stroke="#000000" d="M436,-48C436,-48 572,-48 572,-48 578,-48 584,-54 584,-60 584,-60 584,-126 584,-126 584,-132 578,-138 572,-138 572,-138 436,-138 436,-138 430,-138 424,-132 424,-126 424,-126 424,-60 424,-60 424,-54 430,-48 436,-48"/>
<text text-anchor="middle" x="504" y="-122.8" font-family="Arial" font-size="14.00" fill="#000000">walker </text>
<text text-anchor="middle" x="504" y="-107.8" font-family="Arial" font-size="14.00" fill="#000000">: RiscvPagetableWalker</text>
</a>
</g>
</g>
<g id="clust11" class="cluster">
<title>cluster_system_cpu_mmu_dtb</title>
<g id="a_clust11"><a xlink:title="entry_type=data&#10;eventq_index=0&#10;&#10;ext_level=Null&#10;pma_checker=system.cpu.mmu.pma_checker&#10;pmp=system.cpu.mmu.pmp&#10;size=64&#10;walker=system.cpu.mmu.dtb.walker">
<path fill="#9f9c95" stroke="#000000" d="M612,-40C612,-40 764,-40 764,-40 770,-40 776,-46 776,-52 776,-52 776,-172 776,-172 776,-178 770,-184 764,-184 764,-184 612,-184 612,-184 606,-184 600,-178 600,-172 600,-172 600,-52 600,-52 600,-46 606,-40 612,-40"/>
<text text-anchor="middle" x="688" y="-168.8" font-family="Arial" font-size="14.00" fill="#000000">dtb </text>
<text text-anchor="middle" x="688" y="-153.8" font-family="Arial" font-size="14.00" fill="#000000">: RiscvTLB</text>
</a>
</g>
</g>
<g id="clust12" class="cluster">
<title>cluster_system_cpu_mmu_dtb_walker</title>
<g id="a_clust12"><a xlink:title="clk_domain=system.clk_domain&#10;eventq_index=0&#10;&#10;um_squash_per_cycle=4&#10;pma_checker=system.cpu.mmu.pma_checker&#10;pmp=system.cpu.mmu.pmp&#10;power_model=&#10;power_state=system.cpu.mmu.dtb.walker.power_state&#10;system=system">
<path fill="#84827c" stroke="#000000" d="M620,-48C620,-48 756,-48 756,-48 762,-48 768,-54 768,-60 768,-60 768,-126 768,-126 768,-132 762,-138 756,-138 756,-138 620,-138 620,-138 614,-138 608,-132 608,-126 608,-126 608,-60 608,-60 608,-54 614,-48 620,-48"/>
<text text-anchor="middle" x="688" y="-122.8" font-family="Arial" font-size="14.00" fill="#000000">walker </text>
<text text-anchor="middle" x="688" y="-107.8" font-family="Arial" font-size="14.00" fill="#000000">: RiscvPagetableWalker</text>
</a>
</g>
</g>
<g id="clust152" class="cluster">
<title>cluster_system_membus</title>
<g id="a_clust152"><a xlink:title="clk_domain=system.clk_domain&#10;eventq_index=0&#10;forward_latency=4&#10;frontend_latency=3&#10;header_latency=1&#10;max_outstanding_snoops=512&#10;max_routing_table_size=512&#10;point_of_coherency=true&#10;point_of_unification=true&#10;power_model=&#10;power_state=system.membus.power_state&#10;&#13;esponse_latency=2&#10;snoop_filter=system.membus.snoop_filter&#10;snoop_response_latency=4&#10;system=system&#10;use_default_range=false&#10;width=16">
<path fill="#6f798c" stroke="#000000" d="M54,-674C54,-674 290,-674 290,-674 296,-674 302,-680 302,-686 302,-686 302,-752 302,-752 302,-758 296,-764 290,-764 290,-764 54,-764 54,-764 48,-764 42,-758 42,-752 42,-752 42,-686 42,-686 42,-680 48,-674 54,-674"/>
<text text-anchor="middle" x="172" y="-748.8" font-family="Arial" font-size="14.00" fill="#000000">membus </text>
<text text-anchor="middle" x="172" y="-733.8" font-family="Arial" font-size="14.00" fill="#000000">: SystemXBar</text>
</a>
</g>
</g>
<g id="clust155" class="cluster">
<title>cluster_system_l2bus</title>
<g id="a_clust155"><a xlink:title="clk_domain=system.clk_domain&#10;eventq_index=0&#10;forward_latency=0&#10;frontend_latency=1&#10;header_latency=1&#10;max_outstanding_snoops=512&#10;max_routing_table_size=512&#10;point_of_coherency=false&#10;point_of_unification=true&#10;power_model=&#10;power_state=system.l2bus.power_state&#10;&#13;esponse_latency=1&#10;snoop_filter=system.l2bus.snoop_filter&#10;snoop_response_latency=1&#10;system=system&#10;use_default_range=false&#10;width=32">
<path fill="#6f798c" stroke="#000000" d="M127,-414C127,-414 363,-414 363,-414 369,-414 375,-420 375,-426 375,-426 375,-492 375,-492 375,-498 369,-504 363,-504 363,-504 127,-504 127,-504 121,-504 115,-498 115,-492 115,-492 115,-426 115,-426 115,-420 121,-414 127,-414"/>
<text text-anchor="middle" x="245" y="-488.8" font-family="Arial" font-size="14.00" fill="#000000">l2bus </text>
<text text-anchor="middle" x="245" y="-473.8" font-family="Arial" font-size="14.00" fill="#000000">: L2XBar</text>
</a>
</g>
</g>
<g id="clust158" class="cluster">
<title>cluster_system_l2cache</title>
<g id="a_clust158"><a xlink:title="addr_ranges=0:1073741824&#10;assoc=16&#10;clk_domain=system.clk_domain&#10;clusivity=mostly_incl&#10;compressor=Null&#10;data_latency=10&#10;demand_mshr_reserve=1&#10;eventq_index=0&#10;is_read_only=false&#10;max_miss_count=0&#10;move_contractions=true&#10;mshrs=20&#10;partitioning_manager=Null&#10;power_model=&#10;power_state=system.l2cache.power_state&#10;prefetcher=system.l2cache.prefetcher&#10;&#13;eplace_expansions=true&#10;&#13;eplacement_policy=system.l2cache.replacement_policy&#10;&#13;esponse_latency=5&#10;sequential_access=false&#10;size=524288&#10;system=system&#10;tag_latency=10&#10;tags=system.l2cache.tags&#10;tgts_per_mshr=12&#10;warmup_percentage=0&#10;write_allocator=Null&#10;write_buffers=8&#10;writeback_clean=false">
<path fill="#bab6ae" stroke="#000000" d="M52,-544C52,-544 214,-544 214,-544 220,-544 226,-550 226,-556 226,-556 226,-622 226,-622 226,-628 220,-634 214,-634 214,-634 52,-634 52,-634 46,-634 40,-628 40,-622 40,-622 40,-556 40,-556 40,-550 46,-544 52,-544"/>
<text text-anchor="middle" x="133" y="-618.8" font-family="Arial" font-size="14.00" fill="#000000">l2cache </text>
<text text-anchor="middle" x="133" y="-603.8" font-family="Arial" font-size="14.00" fill="#000000">: L2Cache</text>
</a>
</g>
</g>
<g id="clust168" class="cluster">
<title>cluster_system_l1i</title>
<g id="a_clust168"><a xlink:title="addr_ranges=0:1073741824&#10;assoc=4&#10;clk_domain=system.clk_domain&#10;clusivity=mostly_incl&#10;compressor=Null&#10;data_latency=2&#10;demand_mshr_reserve=1&#10;eventq_index=0&#10;is_read_only=true&#10;max_miss_count=0&#10;move_contractions=true&#10;mshrs=12&#10;partitioning_manager=Null&#10;power_model=&#10;power_state=system.l1i.power_state&#10;prefetcher=Null&#10;&#13;eplace_expansions=true&#10;&#13;eplacement_policy=system.l1i.replacement_policy&#10;&#13;esponse_latency=2&#10;sequential_access=false&#10;size=32768&#10;system=system&#10;tag_latency=2&#10;tags=system.l1i.tags&#10;tgts_per_mshr=8&#10;warmup_percentage=0&#10;write_allocator=Null&#10;write_buffers=8&#10;writeback_clean=false">
<path fill="#bab6ae" stroke="#000000" d="M36,-284C36,-284 198,-284 198,-284 204,-284 210,-290 210,-296 210,-296 210,-362 210,-362 210,-368 204,-374 198,-374 198,-374 36,-374 36,-374 30,-374 24,-368 24,-362 24,-362 24,-296 24,-296 24,-290 30,-284 36,-284"/>
<text text-anchor="middle" x="117" y="-358.8" font-family="Arial" font-size="14.00" fill="#000000">l1i </text>
<text text-anchor="middle" x="117" y="-343.8" font-family="Arial" font-size="14.00" fill="#000000">: L1ICache</text>
</a>
</g>
</g>
<g id="clust174" class="cluster">
<title>cluster_system_l1d</title>
<g id="a_clust174"><a xlink:title="addr_ranges=0:1073741824&#10;assoc=4&#10;clk_domain=system.clk_domain&#10;clusivity=mostly_incl&#10;compressor=Null&#10;data_latency=2&#10;demand_mshr_reserve=1&#10;eventq_index=0&#10;is_read_only=false&#10;max_miss_count=0&#10;move_contractions=true&#10;mshrs=12&#10;partitioning_manager=Null&#10;power_model=&#10;power_state=system.l1d.power_state&#10;prefetcher=Null&#10;&#13;eplace_expansions=true&#10;&#13;eplacement_policy=system.l1d.replacement_policy&#10;&#13;esponse_latency=2&#10;sequential_access=false&#10;size=32768&#10;system=system&#10;tag_latency=2&#10;tags=system.l1d.tags&#10;tgts_per_mshr=8&#10;warmup_percentage=0&#10;write_allocator=Null&#10;write_buffers=8&#10;writeback_clean=false">
<path fill="#bab6ae" stroke="#000000" d="M230,-284C230,-284 392,-284 392,-284 398,-284 404,-290 404,-296 404,-296 404,-362 404,-362 404,-368 398,-374 392,-374 392,-374 230,-374 230,-374 224,-374 218,-368 218,-362 218,-362 218,-296 218,-296 218,-290 224,-284 230,-284"/>
<text text-anchor="middle" x="311" y="-358.8" font-family="Arial" font-size="14.00" fill="#000000">l1d </text>
<text text-anchor="middle" x="311" y="-343.8" font-family="Arial" font-size="14.00" fill="#000000">: L1DCache</text>
</a>
</g>
</g>
<g id="clust180" class="cluster">
<title>cluster_system_iptw_cache</title>
<g id="a_clust180"><a xlink:title="addr_ranges=0:1073741824&#10;assoc=4&#10;clk_domain=system.clk_domain&#10;clusivity=mostly_incl&#10;compressor=Null&#10;data_latency=1&#10;demand_mshr_reserve=1&#10;eventq_index=0&#10;is_read_only=false&#10;max_miss_count=0&#10;move_contractions=true&#10;mshrs=20&#10;partitioning_manager=Null&#10;power_model=&#10;power_state=system.iptw_cache.power_state&#10;prefetcher=Null&#10;&#13;eplace_expansions=true&#10;&#13;eplacement_policy=system.iptw_cache.replacement_policy&#10;&#13;esponse_latency=1&#10;sequential_access=false&#10;size=8192&#10;system=system&#10;tag_latency=1&#10;tags=system.iptw_cache.tags&#10;tgts_per_mshr=12&#10;warmup_percentage=0&#10;write_allocator=Null&#10;write_buffers=8&#10;writeback_clean=true">
<path fill="#bab6ae" stroke="#000000" d="M424,-284C424,-284 586,-284 586,-284 592,-284 598,-290 598,-296 598,-296 598,-362 598,-362 598,-368 592,-374 586,-374 586,-374 424,-374 424,-374 418,-374 412,-368 412,-362 412,-362 412,-296 412,-296 412,-290 418,-284 424,-284"/>
<text text-anchor="middle" x="505" y="-358.8" font-family="Arial" font-size="14.00" fill="#000000">iptw_cache </text>
<text text-anchor="middle" x="505" y="-343.8" font-family="Arial" font-size="14.00" fill="#000000">: MMUCache</text>
</a>
</g>
</g>
<g id="clust186" class="cluster">
<title>cluster_system_dptw_cache</title>
<g id="a_clust186"><a xlink:title="addr_ranges=0:1073741824&#10;assoc=4&#10;clk_domain=system.clk_domain&#10;clusivity=mostly_incl&#10;compressor=Null&#10;data_latency=1&#10;demand_mshr_reserve=1&#10;eventq_index=0&#10;is_read_only=false&#10;max_miss_count=0&#10;move_contractions=true&#10;mshrs=20&#10;partitioning_manager=Null&#10;power_model=&#10;power_state=system.dptw_cache.power_state&#10;prefetcher=Null&#10;&#13;eplace_expansions=true&#10;&#13;eplacement_policy=system.dptw_cache.replacement_policy&#10;&#13;esponse_latency=1&#10;sequential_access=false&#10;size=8192&#10;system=system&#10;tag_latency=1&#10;tags=system.dptw_cache.tags&#10;tgts_per_mshr=12&#10;warmup_percentage=0&#10;write_allocator=Null&#10;write_buffers=8&#10;writeback_clean=true">
<path fill="#bab6ae" stroke="#000000" d="M618,-284C618,-284 780,-284 780,-284 786,-284 792,-290 792,-296 792,-296 792,-362 792,-362 792,-368 786,-374 780,-374 780,-374 618,-374 618,-374 612,-374 606,-368 606,-362 606,-362 606,-296 606,-296 606,-290 612,-284 618,-284"/>
<text text-anchor="middle" x="699" y="-358.8" font-family="Arial" font-size="14.00" fill="#000000">dptw_cache </text>
<text text-anchor="middle" x="699" y="-343.8" font-family="Arial" font-size="14.00" fill="#000000">: MMUCache</text>
</a>
</g>
</g>
<g id="clust192" class="cluster">
<title>cluster_system_mem_ctrl</title>
<g id="a_clust192"><a xlink:title="clk_domain=system.clk_domain&#10;command_window=10000&#10;disable_sanity_check=false&#10;dram=system.mem_ctrl.dram&#10;eventq_index=0&#10;mem_sched_policy=frfcfs&#10;min_reads_per_switch=16&#10;min_writes_per_switch=16&#10;power_model=&#10;power_state=system.mem_ctrl.power_state&#10;qos_policy=Null&#10;qos_priorities=1&#10;qos_priority_escalation=false&#10;qos_q_policy=fifo&#10;qos_requestors= &#160;&#160;&#160;&#160;&#160;&#160;&#160;&#160;&#160;&#160;&#160;&#160;&#160;&#160;&#10;qos_syncro_scheduler=false&#10;qos_turnaround_policy=Null&#10;static_backend_latency=10000&#10;static_frontend_latency=10000&#10;system=system&#10;write_high_thresh_perc=85&#10;write_low_thresh_perc=50">
<path fill="#bab6ae" stroke="#000000" d="M246,-544C246,-544 299,-544 299,-544 305,-544 311,-550 311,-556 311,-556 311,-622 311,-622 311,-628 305,-634 299,-634 299,-634 246,-634 246,-634 240,-634 234,-628 234,-622 234,-622 234,-556 234,-556 234,-550 240,-544 246,-544"/>
<text text-anchor="middle" x="272.5" y="-618.8" font-family="Arial" font-size="14.00" fill="#000000">mem_ctrl </text>
<text text-anchor="middle" x="272.5" y="-603.8" font-family="Arial" font-size="14.00" fill="#000000">: MemCtrl</text>
</a>
</g>
</g>
<!-- system_system_port -->
<g id="node1" class="node">
<title>system_system_port</title>
<path fill="#b6b8bc" stroke="#000000" d="M137.5,-848C137.5,-848 70.5,-848 70.5,-848 64.5,-848 58.5,-842 58.5,-836 58.5,-836 58.5,-824 58.5,-824 58.5,-818 64.5,-812 70.5,-812 70.5,-812 137.5,-812 137.5,-812 143.5,-812 149.5,-818 149.5,-824 149.5,-824 149.5,-836 149.5,-836 149.5,-842 143.5,-848 137.5,-848"/>
<text text-anchor="middle" x="104" y="-826.3" font-family="Arial" font-size="14.00" fill="#000000">system_port</text>
</g>
<!-- system_membus_cpu_side_ports -->
<g id="node6" class="node">
<title>system_membus_cpu_side_ports</title>
<path fill="#586070" stroke="#000000" d="M146,-718C146,-718 62,-718 62,-718 56,-718 50,-712 50,-706 50,-706 50,-694 50,-694 50,-688 56,-682 62,-682 62,-682 146,-682 146,-682 152,-682 158,-688 158,-694 158,-694 158,-706 158,-706 158,-712 152,-718 146,-718"/>
<text text-anchor="middle" x="104" y="-696.3" font-family="Arial" font-size="14.00" fill="#000000">cpu_side_ports</text>
</g>
<!-- system_system_port&#45;&gt;system_membus_cpu_side_ports -->
<g id="edge1" class="edge">
<title>system_system_port&#45;&gt;system_membus_cpu_side_ports</title>
<path fill="none" stroke="black" d="M104,-811.74C104,-790.36 104,-753.69 104,-728.44"/>
<polygon fill="black" stroke="black" points="107.5,-728.4 104,-718.4 100.5,-728.4 107.5,-728.4"/>
</g>
<!-- system_cpu_icache_port -->
<g id="node2" class="node">
<title>system_cpu_icache_port</title>
<path fill="#959ead" stroke="#000000" d="M278,-92C278,-92 216,-92 216,-92 210,-92 204,-86 204,-80 204,-80 204,-68 204,-68 204,-62 210,-56 216,-56 216,-56 278,-56 278,-56 284,-56 290,-62 290,-68 290,-68 290,-80 290,-80 290,-86 284,-92 278,-92"/>
<text text-anchor="middle" x="247" y="-70.3" font-family="Arial" font-size="14.00" fill="#000000">icache_port</text>
</g>
<!-- system_cpu_dcache_port -->
<g id="node3" class="node">
<title>system_cpu_dcache_port</title>
<path fill="#959ead" stroke="#000000" d="M387.5,-92C387.5,-92 320.5,-92 320.5,-92 314.5,-92 308.5,-86 308.5,-80 308.5,-80 308.5,-68 308.5,-68 308.5,-62 314.5,-56 320.5,-56 320.5,-56 387.5,-56 387.5,-56 393.5,-56 399.5,-62 399.5,-68 399.5,-68 399.5,-80 399.5,-80 399.5,-86 393.5,-92 387.5,-92"/>
<text text-anchor="middle" x="354" y="-70.3" font-family="Arial" font-size="14.00" fill="#000000">dcache_port</text>
</g>
<!-- system_cpu_mmu_itb_walker_port -->
<g id="node4" class="node">
<title>system_cpu_mmu_itb_walker_port</title>
<path fill="#6a6863" stroke="#000000" d="M564,-92C564,-92 534,-92 534,-92 528,-92 522,-86 522,-80 522,-80 522,-68 522,-68 522,-62 528,-56 534,-56 534,-56 564,-56 564,-56 570,-56 576,-62 576,-68 576,-68 576,-80 576,-80 576,-86 570,-92 564,-92"/>
<text text-anchor="middle" x="549" y="-70.3" font-family="Arial" font-size="14.00" fill="#000000">port</text>
</g>
<!-- system_cpu_mmu_dtb_walker_port -->
<g id="node5" class="node">
<title>system_cpu_mmu_dtb_walker_port</title>
<path fill="#6a6863" stroke="#000000" d="M748,-92C748,-92 718,-92 718,-92 712,-92 706,-86 706,-80 706,-80 706,-68 706,-68 706,-62 712,-56 718,-56 718,-56 748,-56 748,-56 754,-56 760,-62 760,-68 760,-68 760,-80 760,-80 760,-86 754,-92 748,-92"/>
<text text-anchor="middle" x="733" y="-70.3" font-family="Arial" font-size="14.00" fill="#000000">port</text>
</g>
<!-- system_l2cache_mem_side -->
<g id="node11" class="node">
<title>system_l2cache_mem_side</title>
<path fill="#94918b" stroke="#000000" d="M116,-588C116,-588 60,-588 60,-588 54,-588 48,-582 48,-576 48,-576 48,-564 48,-564 48,-558 54,-552 60,-552 60,-552 116,-552 116,-552 122,-552 128,-558 128,-564 128,-564 128,-576 128,-576 128,-582 122,-588 116,-588"/>
<text text-anchor="middle" x="88" y="-566.3" font-family="Arial" font-size="14.00" fill="#000000">mem_side</text>
</g>
<!-- system_membus_cpu_side_ports&#45;&gt;system_l2cache_mem_side -->
<g id="edge2" class="edge">
<title>system_membus_cpu_side_ports&#45;&gt;system_l2cache_mem_side</title>
<path fill="none" stroke="black" d="M100.59,-671.72C97.44,-646.52 92.85,-609.84 90.17,-588.4"/>
<polygon fill="black" stroke="black" points="97.13,-672.25 101.84,-681.74 104.07,-671.38 97.13,-672.25"/>
</g>
<!-- system_membus_mem_side_ports -->
<g id="node7" class="node">
<title>system_membus_mem_side_ports</title>
<path fill="#586070" stroke="#000000" d="M282,-718C282,-718 188,-718 188,-718 182,-718 176,-712 176,-706 176,-706 176,-694 176,-694 176,-688 182,-682 188,-682 188,-682 282,-682 282,-682 288,-682 294,-688 294,-694 294,-694 294,-706 294,-706 294,-712 288,-718 282,-718"/>
<text text-anchor="middle" x="235" y="-696.3" font-family="Arial" font-size="14.00" fill="#000000">mem_side_ports</text>
</g>
<!-- system_mem_ctrl_port -->
<g id="node20" class="node">
<title>system_mem_ctrl_port</title>
<path fill="#94918b" stroke="#000000" d="M284,-588C284,-588 254,-588 254,-588 248,-588 242,-582 242,-576 242,-576 242,-564 242,-564 242,-558 248,-552 254,-552 254,-552 284,-552 284,-552 290,-552 296,-558 296,-564 296,-564 296,-576 296,-576 296,-582 290,-588 284,-588"/>
<text text-anchor="middle" x="269" y="-566.3" font-family="Arial" font-size="14.00" fill="#000000">port</text>
</g>
<!-- system_membus_mem_side_ports&#45;&gt;system_mem_ctrl_port -->
<g id="edge3" class="edge">
<title>system_membus_mem_side_ports&#45;&gt;system_mem_ctrl_port</title>
<path fill="none" stroke="black" d="M239.59,-681.74C245.29,-660.27 255.09,-623.36 261.8,-598.1"/>
<polygon fill="black" stroke="black" points="265.19,-598.96 264.38,-588.4 258.43,-597.16 265.19,-598.96"/>
</g>
<!-- system_l2bus_cpu_side_ports -->
<g id="node8" class="node">
<title>system_l2bus_cpu_side_ports</title>
<path fill="#586070" stroke="#000000" d="M355,-458C355,-458 271,-458 271,-458 265,-458 259,-452 259,-446 259,-446 259,-434 259,-434 259,-428 265,-422 271,-422 271,-422 355,-422 355,-422 361,-422 367,-428 367,-434 367,-434 367,-446 367,-446 367,-452 361,-458 355,-458"/>
<text text-anchor="middle" x="313" y="-436.3" font-family="Arial" font-size="14.00" fill="#000000">cpu_side_ports</text>
</g>
<!-- system_l1i_mem_side -->
<g id="node13" class="node">
<title>system_l1i_mem_side</title>
<path fill="#94918b" stroke="#000000" d="M100,-328C100,-328 44,-328 44,-328 38,-328 32,-322 32,-316 32,-316 32,-304 32,-304 32,-298 38,-292 44,-292 44,-292 100,-292 100,-292 106,-292 112,-298 112,-304 112,-304 112,-316 112,-316 112,-322 106,-328 100,-328"/>
<text text-anchor="middle" x="72" y="-306.3" font-family="Arial" font-size="14.00" fill="#000000">mem_side</text>
</g>
<!-- system_l2bus_cpu_side_ports&#45;&gt;system_l1i_mem_side -->
<g id="edge4" class="edge">
<title>system_l2bus_cpu_side_ports&#45;&gt;system_l1i_mem_side</title>
<path fill="none" stroke="black" d="M261.51,-418.21C257.63,-416.75 253.76,-415.33 250,-414 193.82,-394.11 171.14,-407.72 122,-374 104.61,-362.07 90.34,-342.29 81.56,-328.08"/>
<polygon fill="black" stroke="black" points="260.55,-421.59 271.14,-421.88 263.05,-415.05 260.55,-421.59"/>
</g>
<!-- system_l1d_mem_side -->
<g id="node15" class="node">
<title>system_l1d_mem_side</title>
<path fill="#94918b" stroke="#000000" d="M294,-328C294,-328 238,-328 238,-328 232,-328 226,-322 226,-316 226,-316 226,-304 226,-304 226,-298 232,-292 238,-292 238,-292 294,-292 294,-292 300,-292 306,-298 306,-304 306,-304 306,-316 306,-316 306,-322 300,-328 294,-328"/>
<text text-anchor="middle" x="266" y="-306.3" font-family="Arial" font-size="14.00" fill="#000000">mem_side</text>
</g>
<!-- system_l2bus_cpu_side_ports&#45;&gt;system_l1d_mem_side -->
<g id="edge5" class="edge">
<title>system_l2bus_cpu_side_ports&#45;&gt;system_l1d_mem_side</title>
<path fill="none" stroke="black" d="M303.11,-412.05C293.85,-386.84 280.3,-349.93 272.39,-328.4"/>
<polygon fill="black" stroke="black" points="299.93,-413.56 306.66,-421.74 306.5,-411.14 299.93,-413.56"/>
</g>
<!-- system_iptw_cache_mem_side -->
<g id="node17" class="node">
<title>system_iptw_cache_mem_side</title>
<path fill="#94918b" stroke="#000000" d="M488,-328C488,-328 432,-328 432,-328 426,-328 420,-322 420,-316 420,-316 420,-304 420,-304 420,-298 426,-292 432,-292 432,-292 488,-292 488,-292 494,-292 500,-298 500,-304 500,-304 500,-316 500,-316 500,-322 494,-328 488,-328"/>
<text text-anchor="middle" x="460" y="-306.3" font-family="Arial" font-size="14.00" fill="#000000">mem_side</text>
</g>
<!-- system_l2bus_cpu_side_ports&#45;&gt;system_iptw_cache_mem_side -->
<g id="edge6" class="edge">
<title>system_l2bus_cpu_side_ports&#45;&gt;system_iptw_cache_mem_side</title>
<path fill="none" stroke="black" d="M351,-416.49C369.15,-404.89 390.63,-389.87 408,-374 423.28,-360.03 438.05,-341.51 447.91,-328.16"/>
<polygon fill="black" stroke="black" points="349,-413.61 342.4,-421.89 352.73,-419.54 349,-413.61"/>
</g>
<!-- system_dptw_cache_mem_side -->
<g id="node19" class="node">
<title>system_dptw_cache_mem_side</title>
<path fill="#94918b" stroke="#000000" d="M682,-328C682,-328 626,-328 626,-328 620,-328 614,-322 614,-316 614,-316 614,-304 614,-304 614,-298 620,-292 626,-292 626,-292 682,-292 682,-292 688,-292 694,-298 694,-304 694,-304 694,-316 694,-316 694,-322 688,-328 682,-328"/>
<text text-anchor="middle" x="654" y="-306.3" font-family="Arial" font-size="14.00" fill="#000000">mem_side</text>
</g>
<!-- system_l2bus_cpu_side_ports&#45;&gt;system_dptw_cache_mem_side -->
<g id="edge7" class="edge">
<title>system_l2bus_cpu_side_ports&#45;&gt;system_dptw_cache_mem_side</title>
<path fill="none" stroke="black" d="M377.24,-436.41C438.96,-431.32 532.79,-416.53 602,-374 620.37,-362.71 635.25,-342.62 644.32,-328.16"/>
<polygon fill="black" stroke="black" points="376.95,-432.93 367.25,-437.18 377.48,-439.91 376.95,-432.93"/>
</g>
<!-- system_l2bus_mem_side_ports -->
<g id="node9" class="node">
<title>system_l2bus_mem_side_ports</title>
<path fill="#586070" stroke="#000000" d="M229,-458C229,-458 135,-458 135,-458 129,-458 123,-452 123,-446 123,-446 123,-434 123,-434 123,-428 129,-422 135,-422 135,-422 229,-422 229,-422 235,-422 241,-428 241,-434 241,-434 241,-446 241,-446 241,-452 235,-458 229,-458"/>
<text text-anchor="middle" x="182" y="-436.3" font-family="Arial" font-size="14.00" fill="#000000">mem_side_ports</text>
</g>
<!-- system_l2cache_cpu_side -->
<g id="node10" class="node">
<title>system_l2cache_cpu_side</title>
<path fill="#94918b" stroke="#000000" d="M205.5,-588C205.5,-588 158.5,-588 158.5,-588 152.5,-588 146.5,-582 146.5,-576 146.5,-576 146.5,-564 146.5,-564 146.5,-558 152.5,-552 158.5,-552 158.5,-552 205.5,-552 205.5,-552 211.5,-552 217.5,-558 217.5,-564 217.5,-564 217.5,-576 217.5,-576 217.5,-582 211.5,-588 205.5,-588"/>
<text text-anchor="middle" x="182" y="-566.3" font-family="Arial" font-size="14.00" fill="#000000">cpu_side</text>
</g>
<!-- system_l2cache_cpu_side&#45;&gt;system_l2bus_mem_side_ports -->
<g id="edge8" class="edge">
<title>system_l2cache_cpu_side&#45;&gt;system_l2bus_mem_side_ports</title>
<path fill="none" stroke="black" d="M182,-541.72C182,-516.52 182,-479.84 182,-458.4"/>
<polygon fill="black" stroke="black" points="178.5,-541.74 182,-551.74 185.5,-541.74 178.5,-541.74"/>
</g>
<!-- system_l1i_cpu_side -->
<g id="node12" class="node">
<title>system_l1i_cpu_side</title>
<path fill="#94918b" stroke="#000000" d="M189.5,-328C189.5,-328 142.5,-328 142.5,-328 136.5,-328 130.5,-322 130.5,-316 130.5,-316 130.5,-304 130.5,-304 130.5,-298 136.5,-292 142.5,-292 142.5,-292 189.5,-292 189.5,-292 195.5,-292 201.5,-298 201.5,-304 201.5,-304 201.5,-316 201.5,-316 201.5,-322 195.5,-328 189.5,-328"/>
<text text-anchor="middle" x="166" y="-306.3" font-family="Arial" font-size="14.00" fill="#000000">cpu_side</text>
</g>
<!-- system_l1i_cpu_side&#45;&gt;system_cpu_icache_port -->
<g id="edge9" class="edge">
<title>system_l1i_cpu_side&#45;&gt;system_cpu_icache_port</title>
<path fill="none" stroke="black" d="M175.25,-282.29C192.02,-233.82 227.04,-132.66 241.04,-92.23"/>
<polygon fill="black" stroke="black" points="171.92,-281.2 171.96,-291.79 178.53,-283.49 171.92,-281.2"/>
</g>
<!-- system_l1d_cpu_side -->
<g id="node14" class="node">
<title>system_l1d_cpu_side</title>
<path fill="#94918b" stroke="#000000" d="M383.5,-328C383.5,-328 336.5,-328 336.5,-328 330.5,-328 324.5,-322 324.5,-316 324.5,-316 324.5,-304 324.5,-304 324.5,-298 330.5,-292 336.5,-292 336.5,-292 383.5,-292 383.5,-292 389.5,-292 395.5,-298 395.5,-304 395.5,-304 395.5,-316 395.5,-316 395.5,-322 389.5,-328 383.5,-328"/>
<text text-anchor="middle" x="360" y="-306.3" font-family="Arial" font-size="14.00" fill="#000000">cpu_side</text>
</g>
<!-- system_l1d_cpu_side&#45;&gt;system_cpu_dcache_port -->
<g id="edge10" class="edge">
<title>system_l1d_cpu_side&#45;&gt;system_cpu_dcache_port</title>
<path fill="none" stroke="black" d="M359.3,-281.68C358.05,-232.98 355.47,-132.49 354.44,-92.23"/>
<polygon fill="black" stroke="black" points="355.8,-281.89 359.56,-291.79 362.8,-281.71 355.8,-281.89"/>
</g>
<!-- system_iptw_cache_cpu_side -->
<g id="node16" class="node">
<title>system_iptw_cache_cpu_side</title>
<path fill="#94918b" stroke="#000000" d="M577.5,-328C577.5,-328 530.5,-328 530.5,-328 524.5,-328 518.5,-322 518.5,-316 518.5,-316 518.5,-304 518.5,-304 518.5,-298 524.5,-292 530.5,-292 530.5,-292 577.5,-292 577.5,-292 583.5,-292 589.5,-298 589.5,-304 589.5,-304 589.5,-316 589.5,-316 589.5,-322 583.5,-328 577.5,-328"/>
<text text-anchor="middle" x="554" y="-306.3" font-family="Arial" font-size="14.00" fill="#000000">cpu_side</text>
</g>
<!-- system_iptw_cache_cpu_side&#45;&gt;system_cpu_mmu_itb_walker_port -->
<g id="edge11" class="edge">
<title>system_iptw_cache_cpu_side&#45;&gt;system_cpu_mmu_itb_walker_port</title>
<path fill="none" stroke="black" d="M553.42,-281.68C552.38,-232.98 550.23,-132.49 549.37,-92.23"/>
<polygon fill="black" stroke="black" points="549.92,-281.87 553.63,-291.79 556.92,-281.72 549.92,-281.87"/>
</g>
<!-- system_dptw_cache_cpu_side -->
<g id="node18" class="node">
<title>system_dptw_cache_cpu_side</title>
<path fill="#94918b" stroke="#000000" d="M771.5,-328C771.5,-328 724.5,-328 724.5,-328 718.5,-328 712.5,-322 712.5,-316 712.5,-316 712.5,-304 712.5,-304 712.5,-298 718.5,-292 724.5,-292 724.5,-292 771.5,-292 771.5,-292 777.5,-292 783.5,-298 783.5,-304 783.5,-304 783.5,-316 783.5,-316 783.5,-322 777.5,-328 771.5,-328"/>
<text text-anchor="middle" x="748" y="-306.3" font-family="Arial" font-size="14.00" fill="#000000">cpu_side</text>
</g>
<!-- system_dptw_cache_cpu_side&#45;&gt;system_cpu_mmu_dtb_walker_port -->
<g id="edge12" class="edge">
<title>system_dptw_cache_cpu_side&#45;&gt;system_cpu_mmu_dtb_walker_port</title>
<path fill="none" stroke="black" d="M746.25,-281.68C743.13,-232.98 736.69,-132.49 734.1,-92.23"/>
<polygon fill="black" stroke="black" points="742.76,-282.04 746.9,-291.79 749.75,-281.59 742.76,-282.04"/>
</g>
</g>
</svg>
